<!DOCTYPE svg PUBLIC "-//W3C//DTD SVG 1.1//EN" "http://www.w3.org/Graphics/SVG/1.1/DTD/svg11.dtd">
<!-- Uploaded to: SVG Repo, www.svgrepo.com, Transformed by: SVG Repo Mixer Tools -->
<svg width="800px" height="800px" viewBox="-2.4 -2.4 28.80 28.80" fill="none" xmlns="http://www.w3.org/2000/svg">
<g id="SVGRepo_bgCarrier" stroke-width="0">
<rect x="-2.4" y="-2.4" width="28.80" height="28.80" rx="14.4" fill="#dff4fb" strokewidth="0"/>
</g>
<g id="SVGRepo_tracerCarrier" stroke-linecap="round" stroke-linejoin="round"/>
<g id="SVGRepo_iconCarrier"> <rect x="3" y="6" width="18" height="15" rx="2" stroke="#4a70e3" stroke-width="2"/> <path d="M3 10C3 8.11438 3 7.17157 3.58579 6.58579C4.17157 6 5.11438 6 7 6H17C18.8856 6 19.8284 6 20.4142 6.58579C21 7.17157 21 8.11438 21 10H3Z" fill="#4a70e3"/> <path d="M7 3L7 6" stroke="#4a70e3" stroke-width="2" stroke-linecap="round"/> <path d="M17 3L17 6" stroke="#4a70e3" stroke-width="2" stroke-linecap="round"/> <rect x="7" y="12" width="4" height="2" rx="0.5" fill="#4a70e3"/> <rect x="7" y="16" width="4" height="2" rx="0.5" fill="#4a70e3"/> <rect x="13" y="12" width="4" height="2" rx="0.5" fill="#4a70e3"/> <rect x="13" y="16" width="4" height="2" rx="0.5" fill="#4a70e3"/> </g>
</svg>